<svg width="4534" height="2477" xmlns="http://www.w3.org/2000/svg" xmlns:xlink="http://www.w3.org/1999/xlink" overflow="hidden"><defs><clipPath id="clip0"><rect x="-1" y="-1" width="4534" height="2477"/></clipPath></defs><g clip-path="url(#clip0)" transform="translate(1 1)"><path d="M0 1123 2200 1135.88" stroke="#7F7F7F" stroke-width="2.29167" stroke-miterlimit="8" stroke-dasharray="18.3333 6.875" fill="none" fill-rule="evenodd"/><path d="M2200 0 2206.48 2475" stroke="#7F7F7F" stroke-width="2.29167" stroke-miterlimit="8" stroke-dasharray="18.3333 6.875" fill="none" fill-rule="evenodd"/><path d="M3548.52 1217.22C3530.96 1043.65 3660.7 888.372 3838.29 870.409 4015.88 852.446 4174.08 978.596 4191.64 1152.17 4209.2 1325.75 4079.46 1481.02 3901.87 1498.99 3724.27 1516.95 3566.07 1390.8 3548.52 1217.22Z" stroke="#F08A4B" stroke-width="10.3125" stroke-miterlimit="8" fill="none" fill-rule="evenodd"/><text fill="#FBE5D6" font-family="Arial,Arial_MSFontService,sans-serif" font-weight="400" font-size="50" transform="matrix(0.994923 -0.100634 0.100634 0.994923 3697.3 1092)">●<tspan fill="#F08A4B" font-size="64" x="352.697" y="81.909">X</tspan><tspan font-size="50" x="-66.3412" y="40.5296">●</tspan><tspan font-size="50" x="137.32" y="21.9304">●</tspan><tspan font-size="50" x="26.3161" y="97.1414">●</tspan><tspan font-size="50" x="-86.134" y="111.9">●</tspan><tspan fill="#F08A4B" font-size="64" x="276.325" y="89.2607">X</tspan><tspan fill="#F08A4B" font-size="64" x="202.5" y="168.232">X</tspan><tspan fill="#F08A4B" font-size="64" x="261.461" y="184.247">X</tspan><tspan fill="#F08A4B" font-size="64" x="326.305" y="192.816">X</tspan></text><text fill="#F08A4B" font-family="Arial,Arial_MSFontService,sans-serif" font-weight="400" font-size="41" transform="matrix(0.994924 -0.100634 0.100634 0.994924 3905 1461)">▲<tspan font-size="41" x="-117.562" y="-59.1309">▲</tspan><tspan font-size="41" x="-219.144" y="-158.86">▲</tspan><tspan font-size="41" x="-70.5171" y="-114.679">▲</tspan><tspan font-size="41" x="-35.8938" y="-62.9316">▲</tspan></text><text fill="#F08A4B" font-family="Arial,Arial_MSFontService,sans-serif" font-weight="400" font-size="64" transform="matrix(0.994923 -0.100634 0.100634 0.994923 3998.24 1321)">X<tspan fill="#FBE5D6" font-size="50" x="-102.976" y="-311.947">●</tspan></text><text fill="#F08A4B" font-family="Arial,Arial_MSFontService,sans-serif" font-weight="400" font-size="41" transform="matrix(0.994924 -0.100634 0.100634 0.994924 3943.99 1391)">▲</text><text fill="#C4DCFC" font-family="Arial,Arial_MSFontService,sans-serif" font-weight="400" font-size="50" transform="matrix(0.996492 -0.0836926 0.0836926 0.996492 1597.27 1713)">●<tspan font-size="64" x="152.779" y="23.8702">X</tspan></text><path d="M1416.96 1750.46C1403.07 1585.02 1531.7 1439.15 1704.26 1424.66 1876.83 1410.17 2027.99 1532.53 2041.88 1697.97 2055.77 1863.41 1927.15 2009.27 1754.58 2023.77 1582.01 2038.26 1430.86 1915.89 1416.96 1750.46Z" stroke="#C4DCFC" stroke-width="10.3125" stroke-miterlimit="8" fill="none" fill-rule="evenodd"/><text fill="#C4DCFC" font-family="Arial,Arial_MSFontService,sans-serif" font-weight="400" font-size="50" transform="matrix(0.996492 -0.0836926 0.0836926 0.996492 1624.25 1628)">●<tspan font-size="64" x="280.521" y="79.7574">X</tspan><tspan font-size="50" x="14.4672" y="186.866">●</tspan><tspan font-size="50" x="10.7858" y="118.318">●</tspan><tspan font-size="50" x="-107.564" y="160.561">●</tspan><tspan font-size="64" x="228.62" y="25.2223">X</tspan><tspan font-size="64" x="192.042" y="171.675">X</tspan><tspan font-size="64" x="315.126" y="186.026">X</tspan><tspan font-size="64" x="190.975" y="307.06">X</tspan><tspan font-size="50" x="59.8703" y="-123.422">●</tspan></text><path d="M343 578C343 403.478 487.612 262 666 262 844.388 262 989 403.478 989 578 989 752.522 844.388 894 666 894 487.612 894 343 752.522 343 578Z" stroke="#5982CA" stroke-width="10.3125" stroke-miterlimit="8" fill="none" fill-rule="evenodd"/><text fill="#5982CA" font-family="Arial,Arial_MSFontService,sans-serif" font-weight="400" font-size="48" transform="matrix(1 0 0 1 567.125 476)">●<tspan font-size="64" x="288.763" y="80">X</tspan><tspan font-size="48" x="-93.041" y="36">●</tspan><tspan font-size="48" x="73.9829" y="24">●</tspan><tspan font-size="48" x="-36.9965" y="99">●</tspan><tspan font-size="48" x="-110.872" y="169">●</tspan><tspan font-size="64" x="212.442" y="87">X</tspan><tspan fill="#C4DCFC" font-size="64" x="138.567" y="161">X</tspan><tspan fill="#C4DCFC" font-size="64" x="197.56" y="177">X</tspan><tspan font-size="64" x="262.395" y="191">X</tspan></text><text fill="#C4DCFC" font-family="Arial,Arial_MSFontService,sans-serif" font-weight="400" font-size="41" transform="translate(672.764 862)">▲<tspan font-size="41" x="-117.612" y="-59">▲</tspan><tspan font-size="41" x="-219.169" y="-159">▲</tspan><tspan font-size="41" x="-70.5714" y="-114">▲</tspan><tspan font-size="41" x="-35.8719" y="-63">▲</tspan></text><path d="M387 579C387 406.135 534.746 266 717 266 899.254 266 1047 406.135 1047 579 1047 751.865 899.254 892 717 892 534.746 892 387 751.865 387 579Z" stroke="#C4DCFC" stroke-width="10.3125" stroke-miterlimit="8" stroke-dasharray="82.5 30.9375" fill="none" fill-rule="evenodd"/><text fill="#C4DCFC" font-family="Arial,Arial_MSFontService,sans-serif" font-weight="400" font-size="64" transform="matrix(1 0 0 1 779.567 727)">X<tspan fill="#5982CA" font-size="48" x="-146.205" y="-345">●</tspan></text><path d="M724.249 147.003C727.399 319.212 730.549 491.421 680.893 638.627 631.236 785.834 528.773 908.038 426.311 1030.24" stroke="#5982CA" stroke-width="10.3125" stroke-miterlimit="8" fill="none" fill-rule="evenodd"/><path d="M234.67 542.456C382.009 563.54 529.349 584.623 649.089 651.766 768.828 718.91 860.966 832.113 953.105 945.317" stroke="#C4DCFC" stroke-width="10.3125" stroke-miterlimit="8" stroke-dasharray="41.25 30.9375" fill="none" fill-rule="evenodd"/><text fill="#C4DCFC" font-family="Arial,Arial_MSFontService,sans-serif" font-weight="400" font-size="41" transform="translate(718.633 796)">▲</text><path d="M1437 578C1437 403.478 1581.84 262 1760.5 262 1939.16 262 2084 403.478 2084 578 2084 752.522 1939.16 894 1760.5 894 1581.84 894 1437 752.522 1437 578Z" stroke="#5982CA" stroke-width="10.3125" stroke-miterlimit="8" fill="none" fill-rule="evenodd"/><text fill="#5982CA" font-family="Arial,Arial_MSFontService,sans-serif" font-weight="400" font-size="48" transform="matrix(1 0 0 1 1661.8 476)">●<tspan font-size="64" x="288.763" y="80">X</tspan><tspan font-size="48" x="-93.0405" y="36">●</tspan><tspan font-size="48" x="73.9834" y="24">●</tspan><tspan font-size="48" x="-36.9961" y="99">●</tspan><tspan font-size="48" x="-110.871" y="169">●</tspan><tspan font-size="64" x="212.443" y="87">X</tspan><tspan fill="#C4DCFC" font-size="64" x="138.568" y="161">X</tspan><tspan fill="#C4DCFC" font-size="64" x="197.56" y="177">X</tspan><tspan font-size="64" x="262.396" y="191">X</tspan></text><text fill="#C4DCFC" font-family="Arial,Arial_MSFontService,sans-serif" font-weight="400" font-size="41" transform="translate(1767.44 862)">▲<tspan font-size="41" x="-117.612" y="-59">▲</tspan><tspan font-size="41" x="-219.169" y="-159">▲</tspan><tspan font-size="41" x="-70.5714" y="-114">▲</tspan><tspan font-size="41" x="-35.8721" y="-63">▲</tspan></text><path d="M1481 579C1481 406.135 1628.97 266 1811.5 266 1994.03 266 2142 406.135 2142 579 2142 751.865 1994.03 892 1811.5 892 1628.97 892 1481 751.865 1481 579Z" stroke="#C4DCFC" stroke-width="10.3125" stroke-miterlimit="8" stroke-dasharray="82.5 30.9375" fill="none" fill-rule="evenodd"/><text fill="#C4DCFC" font-family="Arial,Arial_MSFontService,sans-serif" font-weight="400" font-size="64" transform="matrix(1 0 0 1 1874.25 727)">X<tspan fill="#5982CA" font-size="48" x="-146.205" y="-345">●</tspan></text><text fill="#C4DCFC" font-family="Arial,Arial_MSFontService,sans-serif" font-weight="400" font-size="41" transform="translate(1813.31 796)">▲</text><path d="M0 0 409.28 110.399" stroke="#4472C4" stroke-width="10.3125" stroke-miterlimit="8" fill="none" fill-rule="evenodd" transform="matrix(1 0 0 -1 1325 719.399)"/><path d="M1732 609 2041.97 917.502" stroke="#4472C4" stroke-width="10.3125" stroke-miterlimit="8" fill="none" fill-rule="evenodd"/><path d="M1352 1753C1352 1578.48 1497.73 1437 1677.5 1437 1857.27 1437 2003 1578.48 2003 1753 2003 1927.52 1857.27 2069 1677.5 2069 1497.73 2069 1352 1927.52 1352 1753Z" stroke="#F08A4B" stroke-width="10.3125" stroke-miterlimit="8" fill="none" fill-rule="evenodd"/><text fill="#F08A4B" font-family="Arial,Arial_MSFontService,sans-serif" font-weight="400" font-size="50" transform="matrix(1 0 0 1 1577.79 1653)">●<tspan font-size="64" x="291.085" y="78">X</tspan><tspan font-size="50" x="-93.5913" y="35">●</tspan><tspan font-size="50" x="74.421" y="23">●</tspan><tspan font-size="50" x="-37.2152" y="98">●</tspan><tspan font-size="48" x="-110.955" y="167">●</tspan><tspan font-size="64" x="214.314" y="85">X</tspan><tspan font-size="64" x="140.001" y="159">X</tspan><tspan font-size="64" x="199.343" y="175">X</tspan><tspan font-size="64" x="264.562" y="189">X</tspan><tspan font-size="64" x="214.314" y="249">X</tspan><tspan font-size="50" x="66.6294" y="-94">●</tspan></text><path d="M1736.78 1321.32C1739.76 1493.57 1742.74 1665.83 1692.64 1813.14 1642.54 1960.44 1539.36 2082.8 1436.18 2205.15" stroke="#F08A4B" stroke-width="10.3125" stroke-miterlimit="8" fill="none" fill-rule="evenodd"/><path d="M474 1629C474 1454.48 619.508 1313 799 1313 978.493 1313 1124 1454.48 1124 1629 1124 1803.52 978.493 1945 799 1945 619.508 1945 474 1803.52 474 1629Z" stroke="#F08A4B" stroke-width="10.3125" stroke-miterlimit="8" fill="none" fill-rule="evenodd"/><text fill="#F08A4B" font-family="Arial,Arial_MSFontService,sans-serif" font-weight="400" font-size="48" transform="matrix(1 0 0 1 699.674 1527)">●<tspan font-size="64" x="290.513" y="80">X</tspan><tspan font-size="48" x="-93.5913" y="35">●</tspan><tspan font-size="48" x="74.421" y="23">●</tspan><tspan font-size="48" x="-37.2152" y="98">●</tspan><tspan font-size="41" x="-109.236" y="161">●</tspan><tspan font-size="64" x="213.741" y="87">X</tspan><tspan font-size="64" x="139.428" y="161">X</tspan><tspan font-size="64" x="198.77" y="176">X</tspan><tspan font-size="64" x="263.989" y="190">X</tspan><tspan font-size="64" x="213.741" y="250">X</tspan><tspan font-size="48" x="66.6294" y="-95">●</tspan></text><path d="M858.094 1197.03C861.073 1369.29 864.053 1541.54 813.952 1688.85 763.851 1836.16 660.67 1958.51 557.489 2080.86" stroke="#F08A4B" stroke-width="10.3125" stroke-miterlimit="8" fill="none" fill-rule="evenodd"/><path d="M538.098 1563.51C700.675 1529.87 860.913 1640.08 895.999 1809.66 931.085 1979.24 827.733 2143.98 665.155 2177.62 502.578 2211.26 342.34 2101.05 307.254 1931.47 272.168 1761.89 375.52 1597.15 538.098 1563.51Z" stroke="#C4DCFC" stroke-width="10.3125" stroke-miterlimit="8" fill="none" fill-rule="evenodd"/><text fill="#C4DCFC" font-family="Arial,Arial_MSFontService,sans-serif" font-weight="400" font-size="48" transform="matrix(0.202606 0.97926 -0.97926 0.202606 685.166 1755)">●<tspan font-size="64" x="279.521" y="80.3366">X</tspan><tspan font-size="48" x="14.4214" y="186.953">●</tspan><tspan font-size="48" x="11.2241" y="118.499">●</tspan><tspan font-size="48" x="-34.299" y="81.8715">●</tspan><tspan font-size="48" x="-107.756" y="160.517">●</tspan><tspan font-size="64" x="228.497" y="25.8741">X</tspan><tspan font-size="64" x="118.695" y="107.435">X</tspan><tspan font-size="64" x="191.056" y="172.288">X</tspan><tspan font-size="64" x="314.685" y="186.772">X</tspan><tspan font-size="64" x="190.692" y="307.31">X</tspan><tspan font-size="48" x="60.2194" y="-123.247">●</tspan></text><path d="M2550 1039C2550 864.478 2694.84 723 2873.5 723 3052.16 723 3197 864.478 3197 1039 3197 1213.52 3052.16 1355 2873.5 1355 2694.84 1355 2550 1213.52 2550 1039Z" stroke="#5982CA" stroke-width="10.3125" stroke-miterlimit="8" fill="none" fill-rule="evenodd"/><text fill="#5982CA" font-family="Arial,Arial_MSFontService,sans-serif" font-weight="400" font-size="50" transform="matrix(1 0 0 1 2774.35 939)">●<tspan font-size="64" x="289.335" y="78">X</tspan><tspan font-size="50" x="-93.041" y="36">●</tspan><tspan font-size="50" x="73.9829" y="24">●</tspan><tspan font-size="50" x="-36.9966" y="99">●</tspan><tspan font-size="50" x="-110.872" y="169">●</tspan><tspan font-size="64" x="213.015" y="85">X</tspan><tspan font-size="64" x="139.14" y="159">X</tspan><tspan font-size="64" x="198.133" y="175">X</tspan><tspan font-size="64" x="262.969" y="189">X</tspan></text><text fill="#C4DCFC" font-family="Arial,Arial_MSFontService,sans-serif" font-weight="400" font-size="41" transform="translate(2880.56 1323)">▲<tspan font-size="41" x="-117.613" y="-59">▲</tspan><tspan font-size="41" x="-219.169" y="-159">▲</tspan><tspan font-size="41" x="-70.5718" y="-114">▲</tspan><tspan font-size="41" x="-35.8723" y="-63">▲</tspan></text><text fill="#5982CA" font-family="Arial,Arial_MSFontService,sans-serif" font-weight="400" font-size="64" transform="matrix(1 0 0 1 2987.37 1188)">X<tspan font-size="50" x="-146.778" y="-343">●</tspan></text><path d="M2932.05 607.821C2935.2 780.03 2938.35 952.24 2888.69 1099.45 2839.04 1246.65 2736.57 1368.86 2634.11 1491.06" stroke="#5982CA" stroke-width="10.3125" stroke-miterlimit="8" fill="none" fill-rule="evenodd"/><text fill="#C4DCFC" font-family="Arial,Arial_MSFontService,sans-serif" font-weight="400" font-size="41" transform="translate(2926.43 1257)">▲</text><path d="M2403.71 1364.06C2394.67 1189.83 2531.85 1041.09 2710.11 1031.84 2888.37 1022.6 3040.2 1156.34 3049.24 1330.57 3058.28 1504.79 2921.1 1653.53 2742.84 1662.78 2564.58 1672.03 2412.75 1538.29 2403.71 1364.06Z" stroke="#F08A4B" stroke-width="10.3125" stroke-miterlimit="8" fill="none" fill-rule="evenodd"/><text fill="#FBE5D6" font-family="Arial,Arial_MSFontService,sans-serif" font-weight="400" font-size="50" transform="matrix(0.998657 -0.051811 0.051811 0.998657 2558.46 1246)">●<tspan fill="#F08A4B" font-size="64" x="352.631" y="82.3808">X</tspan><tspan font-size="50" x="-66.3471" y="40.617">●</tspan><tspan font-size="50" x="137.28" y="22.1423">●</tspan><tspan font-size="50" x="26.2803" y="97.4925">●</tspan><tspan font-size="50" x="-45.4671" y="108.79">●</tspan><tspan fill="#F08A4B" font-size="64" x="276.3" y="89.4355">X</tspan><tspan fill="#F08A4B" font-size="64" x="202.434" y="168.715">X</tspan><tspan fill="#F08A4B" font-size="64" x="261.407" y="184.792">X</tspan><tspan fill="#F08A4B" font-size="64" x="326.258" y="193.163">X</tspan></text><text fill="#F08A4B" font-family="Arial,Arial_MSFontService,sans-serif" font-weight="400" font-size="41" transform="matrix(0.998657 -0.051811 0.051811 0.998657 2747.84 1625)">▲<tspan font-size="41" x="-117.585" y="-59.1717">▲</tspan><tspan font-size="41" x="-219.171" y="-158.568">▲</tspan><tspan font-size="41" x="-70.5886" y="-113.81">▲</tspan><tspan font-size="41" x="-35.8825" y="-62.9436">▲</tspan></text><text fill="#F08A4B" font-family="Arial,Arial_MSFontService,sans-serif" font-weight="400" font-size="64" transform="matrix(0.998657 -0.051811 0.051811 0.998657 2847.79 1490)">X<tspan fill="#FBE5D6" font-size="50" x="-102.898" y="-312.751">●</tspan></text><path d="M2223.17 1342.57C2395 1354.5 2566.82 1366.43 2709.12 1428.78 2851.41 1491.12 2964.18 1603.88 3076.96 1716.64" stroke="#F08A4B" stroke-width="10.3125" stroke-miterlimit="8" fill="none" fill-rule="evenodd"/><text fill="#F08A4B" font-family="Arial,Arial_MSFontService,sans-serif" font-weight="400" font-size="41" transform="matrix(0.998657 -0.051811 0.051811 0.998657 2790.22 1557)">▲</text><path d="M3577 1129C3577 954.478 3721.84 813 3900.5 813 4079.16 813 4224 954.478 4224 1129 4224 1303.52 4079.16 1445 3900.5 1445 3721.84 1445 3577 1303.52 3577 1129Z" stroke="#5982CA" stroke-width="10.3125" stroke-miterlimit="8" fill="none" fill-rule="evenodd"/><text fill="#5982CA" font-family="Arial,Arial_MSFontService,sans-serif" font-weight="400" font-size="50" transform="matrix(1 0 0 1 3801.25 1029)">●<tspan font-size="64" x="289.336" y="78">X</tspan><tspan font-size="50" x="-93.0408" y="35">●</tspan><tspan font-size="50" x="73.9829" y="23">●</tspan><tspan font-size="50" x="-36.9963" y="98">●</tspan><tspan font-size="50" x="-110.871" y="168">●</tspan><tspan font-size="64" x="213.016" y="85">X</tspan><tspan font-size="64" x="139.14" y="159">X</tspan><tspan font-size="64" x="198.133" y="174">X</tspan><tspan font-size="64" x="262.969" y="188">X</tspan></text><text fill="#C4DCFC" font-family="Arial,Arial_MSFontService,sans-serif" font-weight="400" font-size="41" transform="translate(3907.46 1412)">▲<tspan font-size="41" x="-117.613" y="-58">▲</tspan><tspan font-size="41" x="-219.169" y="-158">▲</tspan><tspan font-size="41" x="-70.5718" y="-114">▲</tspan><tspan font-size="41" x="-35.8723" y="-63">▲</tspan></text><text fill="#5982CA" font-family="Arial,Arial_MSFontService,sans-serif" font-weight="400" font-size="64" transform="matrix(1 0 0 1 4014.26 1278)">X<tspan font-size="50" x="-146.778" y="-343">●</tspan></text><text fill="#C4DCFC" font-family="Arial,Arial_MSFontService,sans-serif" font-weight="400" font-size="41" transform="translate(3953.33 1346)">▲</text><path d="M0 0 229.048 429.658" stroke="#4472C4" stroke-width="10.3125" stroke-miterlimit="8" fill="none" fill-rule="evenodd" transform="matrix(-1 0 0 1 1959.05 182)"/><path d="M0 0 229.048 429.658" stroke="#5982CA" stroke-width="10.3125" stroke-miterlimit="8" fill="none" fill-rule="evenodd" transform="matrix(-1 0 0 1 4098.05 742)"/><path d="M0 0 380.659 103.812" stroke="#5982CA" stroke-width="10.3125" stroke-miterlimit="8" fill="none" fill-rule="evenodd" transform="matrix(-1 0 0 1 3876.66 1167)"/><path d="M3872 1166 4144.94 1531.22" stroke="#5982CA" stroke-width="10.3125" stroke-miterlimit="8" fill="none" fill-rule="evenodd"/><text fill="#5982CA" font-family="Arial,Arial_MSFontService,sans-serif" font-weight="400" font-size="83" transform="matrix(1 0 0 1 168.282 271)">Dataset <tspan font-size="83" x="0" y="99">1</tspan><tspan fill="#89BAFA" font-size="83" x="713.981" y="1">Dataset 2</tspan><tspan fill="#89BAFA" font-size="83" x="182.932" y="2014">Target Domain</tspan><tspan fill="#F08A4B" font-size="83" x="23.7693" y="1138">Source</tspan><tspan fill="#F08A4B" font-size="83" x="12.3109" y="1237">Domai</tspan><tspan fill="#F08A4B" font-size="83" x="250.644" y="1237">n</tspan></text><path d="M1125.5 582.062 1303.01 582.063 1303.01 588.938 1125.5 588.937ZM1298.42 571.75 1325.92 585.5 1298.42 599.25Z" fill="#7F7F7F"/><path d="M1100.5 1889.06 1278.01 1889.06 1278.01 1895.94 1100.5 1895.94ZM1273.42 1878.75 1300.92 1892.5 1273.42 1906.25Z" fill="#7F7F7F"/><path d="M3197.5 1255.06 3375.01 1255.06 3375.01 1261.94 3197.5 1261.94ZM3370.42 1244.75 3397.92 1258.5 3370.42 1272.25Z" fill="#7F7F7F"/><text fill="#F08A4B" font-family="Arial,Arial_MSFontService,sans-serif" font-weight="400" font-size="83" transform="matrix(1 0 0 1 2596.25 1810)">Domain 2<tspan fill="#5982CA" font-size="83" x="-197.165" y="-1116">Domain 1</tspan><tspan fill="#000000" font-family="Calibri,Calibri_MSFontService,sans-serif" font-size="83" x="-2020.24" y="-754">(a) Partial Label Segmentation</tspan><tspan fill="#000000" font-family="Calibri,Calibri_MSFontService,sans-serif" font-size="83" x="-195.249" y="172">(c) Domain </tspan><tspan fill="#000000" font-family="Calibri,Calibri_MSFontService,sans-serif" font-size="83" x="190.324" y="172">Adaptive Segmentation with Partial Labels</tspan><tspan fill="#000000" font-family="Calibri,Calibri_MSFontService,sans-serif" font-size="83" x="-1871.3" y="588">(b) Domain </tspan><tspan fill="#000000" font-family="Calibri,Calibri_MSFontService,sans-serif" font-size="83" x="-1477.13" y="588">Adaptation</tspan></text></g></svg>