<svg width="2012" height="1054" xmlns="http://www.w3.org/2000/svg" xmlns:xlink="http://www.w3.org/1999/xlink" overflow="hidden"><defs><clipPath id="clip0"><rect x="121" y="741" width="2012" height="1054"/></clipPath><clipPath id="clip1"><rect x="121" y="982" width="297" height="1233"/></clipPath></defs><g clip-path="url(#clip0)" transform="translate(-121 -741)"><path d="M1273.95 1404.99 2130.36 1404.99 2130.36 1791.84 1273.95 1791.84Z" fill="#D01E2E" fill-rule="evenodd" fill-opacity="0.25098"/><path d="M1273.95 1018.15 1273.95 1791.84" stroke="#000000" stroke-width="4.58333" stroke-linejoin="round" stroke-miterlimit="10" fill="none" fill-rule="evenodd"/><path d="M417.546 1404.99 2130.36 1404.99" stroke="#000000" stroke-width="4.58333" stroke-linejoin="round" stroke-miterlimit="10" fill="none" fill-rule="evenodd"/><text fill="#595959" font-family="Arial,Arial_MSFontService,sans-serif" font-weight="400" font-size="73" transform="matrix(1 0 0 1 766.4 897)">Ideal<tspan font-size="73" x="1.99371" y="88">Data</tspan><tspan font-size="73" x="823.751" y="0">Harder</tspan><tspan font-size="73" x="858.401" y="88">Data</tspan><tspan font-size="73" x="-576.426" y="298">Ideal</tspan><tspan font-size="73" x="-574.409" y="386">Data</tspan><tspan fill="#000000" font-size="64" x="-242.298" y="300">Multi</tspan><tspan fill="#000000" font-size="64" x="-107.09" y="300">-</tspan><tspan fill="#000000" font-size="64" x="-85.8917" y="300">organ Annotated, </tspan><tspan fill="#000000" font-size="64" x="-132.344" y="377">Same Modality</tspan><tspan fill="#202C63" font-size="64" x="594.343" y="300">Single organ Annotated, </tspan><tspan fill="#202C63" font-size="64" x="732.943" y="377">Same Modality</tspan></text><g clip-path="url(#clip1)"><text fill="#595959" font-family="Arial,Arial_MSFontService,sans-serif" font-weight="400" font-size="73" transform="matrix(1 0 0 1 157.318 1581)">Harder</text></g><text fill="#595959" font-family="Arial,Arial_MSFontService,sans-serif" font-weight="400" font-size="73" transform="matrix(1 0 0 1 191.991 1669)">Data<tspan fill="#C0A02B" font-size="64" x="332.111" y="-86">Multi</tspan><tspan fill="#C0A02B" font-size="64" x="467.32" y="-86">-</tspan><tspan fill="#C0A02B" font-size="64" x="488.518" y="-86">organ Annotated, </tspan><tspan fill="#C0A02B" font-size="64" x="405.399" y="-9">Different Modality</tspan><tspan fill="#C00000" font-weight="700" font-size="64" x="1142.11" y="-86">Single organ Annotated, </tspan><tspan fill="#C00000" font-weight="700" font-size="64" x="1240.31" y="-9">Different Modality</tspan></text><path d="M5.15625-1.15971e-05 5.15627 10.3125-5.15623 10.3125-5.15625 1.15971e-05ZM5.1563 20.625 5.15632 30.9375-5.15618 30.9375-5.1562 20.625ZM5.15634 41.25 5.15637 51.5625-5.15613 51.5625-5.15616 41.25ZM5.15639 61.875 5.15641 72.1875-5.15609 72.1875-5.15611 61.875ZM5.15644 82.5 5.15646 92.8125-5.15604 92.8125-5.15606 82.5ZM5.15648 103.125 5.15651 113.437-5.15599 113.438-5.15602 103.125ZM5.15653 123.75 5.15655 134.062-5.15595 134.063-5.15597 123.75ZM15.469 129.521 0.000360892 160.459-15.4685 129.521Z" fill="#C0A02B" transform="matrix(1 0 0 -1 852 1466.46)"/><path d="M6.46994e-06-3.4375 20.625-3.43746 20.625 3.43754-6.46994e-06 3.4375ZM27.5-3.43745 48.125-3.43741 48.125 3.43759 27.5 3.43755ZM55-3.4374 75.625-3.43736 75.625 3.43764 55 3.4376ZM82.5-3.43734 103.125-3.43731 103.125 3.43769 82.5 3.43766ZM110-3.43729 130.625-3.43725 130.625 3.43775 110 3.43771ZM137.5-3.43724 158.125-3.4372 158.125 3.4378 137.5 3.43776ZM165-3.43719 168.827-3.43718 168.827 3.43782 165 3.43781ZM164.243-13.7497 191.743 0.000360892 164.243 13.7503Z" fill="#202C63" transform="matrix(-1 0 0 1 1344.24 1076.5)"/><text fill="#202C63" font-family="Arial,Arial_MSFontService,sans-serif" font-weight="400" font-size="55" transform="matrix(1 0 0 1 998.411 1000)">Incomplete <tspan font-size="55" x="280.569" y="0">A</tspan><tspan font-size="55" x="317.236" y="0">nnotation</tspan><tspan fill="#C0A02B" font-size="55" x="-599.112" y="375">Domain</tspan><tspan fill="#C0A02B" font-size="55" x="-398.179" y="375">Adaptio</tspan><tspan fill="#C0A02B" font-size="55" x="-212.553" y="375">n</tspan></text><path d="M1368.77 1472.16 1118.99 1308.58 1126.52 1297.08 1376.3 1460.66ZM1117.21 1323.85 1094 1284 1139.81 1289.35Z" fill="#D01E2E"/><text fill="#D01E2E" font-family="Arial,Arial_MSFontService,sans-serif" font-weight="700" font-size="64" transform="matrix(1 0 0 1 1095.59 1462)">Ours</text></g></svg>